PathFileType	4	(X/Y/Z)	C:/Users/opensim2020/Desktop/walking_exp_matlab/subject01_walking07_straight_01.trc	
DataRate	CameraRate	NumFrames	NumMarkers	Units	OrigDataRate	OrigDataStartFrame	OrigNumFrames	
100.00	100.00	5	43	mm	100.00	831	282	
Frame#	Time	LFHD			RFHD			LBHD			RBHD			C7			T10			CLAV			STRN			RBAK			LSHO			LUPA			LELB			LFRM			LWRA			LWRB			LFIN			RSHO			RUPA			RELB			RFRM			RWRA			RWRB			RFIN			LASI			RASI			LPSI			RPSI			LTHI			LKNE			LTIB			LANK			LHEE			LTOE			RTHI			RKNE			RTIB			RANK			RHEE			RTOE			*39			*40			*41			*42			
		X1	Y1	Z1	X2	Y2	Z2	X3	Y3	Z3	X4	Y4	Z4	X5	Y5	Z5	X6	Y6	Z6	X7	Y7	Z7	X8	Y8	Z8	X9	Y9	Z9	X10	Y10	Z10	X11	Y11	Z11	X12	Y12	Z12	X13	Y13	Z13	X14	Y14	Z14	X15	Y15	Z15	X16	Y16	Z16	X17	Y17	Z17	X18	Y18	Z18	X19	Y19	Z19	X20	Y20	Z20	X21	Y21	Z21	X22	Y22	Z22	X23	Y23	Z23	X24	Y24	Z24	X25	Y25	Z25	X26	Y26	Z26	X27	Y27	Z27	X28	Y28	Z28	X29	Y29	Z29	X30	Y30	Z30	X31	Y31	Z31	X32	Y32	Z32	X33	Y33	Z33	X34	Y34	Z34	X35	Y35	Z35	X36	Y36	Z36	X37	Y37	Z37	X38	Y38	Z38	X39	Y39	Z39	X40	Y40	Z40	X41	Y41	Z41	X42	Y42	Z42	X43	Y43	Z43	

177	1.760	1436.82178	15.43347	1668.27478	1545.72229	49.74470	1674.12402	1467.23425	-96.53449	1621.19019	1582.82910	-63.26028	1626.63281	1494.15479	-124.08950	1425.17798	1495.27185	-146.29236	1129.98511	1492.95264	21.75935	1362.84497	1482.81580	72.09450	1210.92798	1563.38354	-170.07574	1224.99060	1332.78271	-37.36320	1393.63831	1241.37659	-55.15473	1211.66699	1235.10437	-57.69312	1056.89343	1211.27649	17.47274	967.06549	1231.72656	133.91231	892.76544	1207.43445	86.33913	866.63019	1197.94836	158.39119	823.42175	1646.08240	-43.18715	1384.95605	1734.15210	-113.59428	1182.93188	1732.40039	-117.22733	1058.41809	1760.86157	-97.44920	939.02637	1745.92712	-21.36364	819.15088	1780.42712	-68.54932	821.10834	1777.68530	-36.52953	741.06488	1377.21509	25.24317	925.65283	1591.67883	44.80910	933.48492	1445.10962	-156.31209	936.74701	1590.57800	-141.19084	943.27954	1315.85681	-0.86209	589.01599	1322.32129	-16.91186	456.35315	1325.72424	-170.76927	354.07745	1386.92139	-334.85141	216.50673	1446.12573	-367.64859	238.36845	1385.83191	-313.92078	67.71040	1646.46936	41.36156	602.45392	1614.04199	78.34276	449.34473	1624.38220	36.90622	277.00940	1575.80408	15.78379	73.79391	1532.72473	-38.56678	35.94254	1560.20081	155.51512	36.02488	1526.55444	33.45853	1707.87244	-3102.00757	1973.01514	1024.04663	-3140.80420	2012.47705	1022.15430			 
178	1.770	1436.98914	25.64956	1668.97290	1545.79919	60.00533	1674.69287	1467.44360	-86.63758	1622.10583	1583.01575	-52.98362	1627.28125	1494.60327	-114.00147	1425.89233	1496.54773	-136.62236	1130.72144	1492.90613	31.68858	1363.34155	1482.85352	81.74921	1211.35315	1564.60254	-160.10211	1225.95068	1332.85193	-28.11904	1393.98523	1242.55237	-47.90650	1211.71423	1236.51990	-51.11129	1056.98853	1212.70691	22.00057	965.69489	1232.98157	137.04994	889.17566	1208.92969	88.71510	863.82520	1199.32336	159.85556	819.20428	1646.27454	-32.47869	1385.83264	1735.28748	-101.95648	1183.68115	1733.64771	-105.22825	1059.03967	1761.94006	-84.17674	939.81067	1746.73767	-6.52100	820.86426	1781.25146	-53.98314	822.23199	1778.53198	-20.95213	742.60516	1377.99768	34.53695	926.49109	1592.55432	54.15313	933.69397	1445.79297	-147.01115	936.71783	1591.28320	-132.28204	943.61115	1315.33801	14.64843	590.74414	1322.01746	2.13636	458.19830	1325.10046	-151.24992	356.06976	1387.40283	-316.69443	221.31638	1447.47693	-349.29941	242.01433	1381.96265	-295.83743	72.27455	1646.43604	47.90573	602.17297	1614.27002	82.54073	448.73044	1624.46606	39.67729	276.67273	1575.67395	16.01698	73.72255	1532.65735	-38.60716	36.05503	1560.03186	155.55551	35.99182	1526.65234	43.76489	1708.47144	-3101.98804	1973.09009	1023.50452	-3140.68091	2012.51819	1022.13330			 
179	1.780	1436.90881	35.76727	1669.50342	1545.66589	70.27918	1675.22522	1467.54150	-76.49581	1622.79700	1583.08167	-42.70086	1627.99695	1495.07959	-104.12325	1426.70520	1497.72314	-127.08852	1131.51758	1492.78320	41.54066	1363.78235	1482.89502	91.29875	1211.75732	1565.74817	-150.28751	1226.94287	1332.92322	-18.91006	1394.36987	1243.25037	-39.88432	1211.80554	1237.91150	-44.64999	1057.30542	1214.16418	26.47274	964.47363	1234.12927	139.86000	885.56952	1210.33887	90.98880	861.11444	1200.87463	161.16753	815.06177	1646.41553	-21.86607	1386.67920	1736.34912	-90.27238	1184.41309	1734.97290	-93.01102	1059.81226	1762.98059	-70.80489	940.59808	1747.25000	7.72012	822.54218	1782.06445	-39.20506	823.37872	1779.39368	-5.17456	744.25580	1378.28381	44.10040	927.39624	1593.38074	63.36240	933.98602	1446.30615	-137.74098	936.79413	1591.60474	-122.90532	943.50006	1314.74536	30.06024	592.59131	1321.68298	21.06094	460.19525	1324.74292	-131.73074	357.80225	1387.99133	-298.06406	225.06357	1449.08582	-330.67331	244.37704	1378.47705	-276.07724	76.73135	1646.53882	54.15444	602.17902	1614.48608	86.35141	448.00519	1624.55396	42.25941	276.47357	1575.64502	16.28877	73.70267	1532.34619	-39.05118	36.67342	1559.92297	155.63297	35.90199	1526.56323	54.05690	1709.02979	-3101.98047	1973.14465	1023.44794	-3140.62207	2012.58984	1022.23407			 
180	1.790	1436.66553	45.88573	1670.05371	1545.40039	80.65819	1675.79102	1467.49414	-66.35291	1623.49390	1582.97424	-32.39931	1628.70923	1495.45544	-94.26530	1427.49866	1498.69226	-117.72127	1132.38599	1492.57727	51.23329	1364.23096	1482.89990	100.71040	1212.10840	1566.82532	-140.47597	1227.91077	1332.94556	-9.84550	1394.80713	1244.54626	-32.81308	1211.92896	1239.29004	-38.24263	1057.58167	1215.53320	30.75804	963.44232	1235.19128	142.46112	882.08618	1211.62329	92.93366	858.64587	1202.41125	162.13077	810.67761	1646.51074	-11.29416	1387.56616	1737.45947	-78.53358	1185.17651	1736.20776	-80.82954	1060.50757	1764.04797	-57.30878	941.48962	1747.73718	22.20537	824.28876	1782.60303	-24.55944	824.42664	1780.15930	10.66706	746.00580	1378.85083	53.08801	928.26135	1594.22949	72.53423	934.43579	1446.59131	-128.47543	937.08881	1591.87268	-114.03535	943.77704	1314.10571	45.46242	594.54712	1321.27246	40.09400	462.40240	1324.86206	-112.14101	359.52249	1388.55725	-278.78125	227.92816	1450.44702	-312.01627	245.29857	1374.93835	-254.59151	80.75764	1646.75513	60.07204	602.31561	1614.72742	90.02374	447.39020	1623.95349	44.23000	275.59799	1575.61768	16.41356	73.77854	1532.44751	-38.86142	36.34650	1559.86475	155.65382	35.85605	1526.29016	64.38958	1709.59412	-3102.03613	1973.12537	1023.66382	-3140.55493	2012.52686	1022.00562			 
181	1.800	1436.22168	56.03010	1670.53503	1544.93835	90.99931	1676.27356	1467.40259	-56.27489	1624.23328	1582.75708	-22.11613	1629.47913	1495.90259	-84.59443	1428.31519	1499.45044	-108.43255	1133.17480	1492.33606	60.89051	1364.71338	1482.82605	110.01054	1212.47583	1567.81873	-130.73264	1228.93909	1332.95728	-0.91769	1395.26941	1245.42737	-25.42030	1212.12134	1240.67419	-31.81347	1057.84668	1216.86743	35.02730	962.55994	1236.22961	144.81224	878.68225	1212.82581	94.69771	856.30225	1203.59875	162.92265	806.86761	1646.49976	-0.87281	1388.43518	1738.49963	-66.71136	1185.91443	1737.45544	-68.53789	1061.22180	1765.08875	-43.64044	942.41833	1748.22693	36.97587	826.12030	1783.30591	-9.65424	825.68109	1780.81506	26.53840	747.76343	1379.37903	62.82042	929.42206	1594.97729	81.64408	934.99585	1446.72876	-119.25600	937.61346	1592.02209	-105.23220	944.36151	1313.51904	60.71370	596.59082	1320.82019	58.84890	464.61737	1325.27686	-92.59576	361.06427	1389.32898	-259.03644	229.84045	1451.81714	-292.97009	245.08485	1371.58826	-231.24872	84.30473	1646.98108	65.70406	602.41180	1614.85925	93.59451	446.82858	1624.34033	47.06364	275.77048	1575.59448	16.58053	73.86415	1532.17053	-39.15599	36.90562	1559.76794	155.69092	35.78919	1525.82739	74.77604	1710.12976	-3101.90698	1973.19324	1023.34625	-3140.79443	2012.44592	1022.00250			 
